<svg xmlns="http://www.w3.org/2000/svg" xmlns:xlink="http://www.w3.org/1999/xlink" width="24" height="24" viewBox="0 0 24 24" fill="currentColor" stroke="currentColor" stroke-width="1.75" stroke-linecap="round" stroke-linejoin="round">
<g transform="matrix(0.046875 0 0 0.046875 0 0)">
    <path transform="matrix(1.032258 0 0 1.032258 0 0)"  d="M247.04 109C 169.17 109 105.034 172.76 105.035 251.001C 105.035 303.35 133.699 351.292 179.838 376.117C 184.894 378.838 188.035 384.188 188.035 390.081L188.035 390.081L188.035 445C 188.035 471.467 209.568 493 236.035 493L236.035 493L258.035 493C 284.502 493 306.035 471.467 306.035 445L306.035 445L306.035 390.082C 306.035 384.208 309.311 378.784 314.585 375.927C 360.507 351.051 389.035 303.181 389.035 251C 389.035 172.513 325.508 109 247.04 109zM258.035 461L236.035 461C 227.213 461 220.035 453.822 220.035 445L220.035 445L220.035 406L274.035 406L274.035 445C 274.035 453.822 266.857 461 258.035 461zM299.343 347.791C 288.664 353.576 280.755 362.988 276.822 374L276.822 374L217.283 374C 213.395 362.988 205.57 353.625 195 347.938C 159.246 328.701 137.035 291.557 137.035 251.001C 137.035 190.529 186.911 140.573 247.88 141.002C 308.068 141.454 357.035 190.798 357.035 250.999C 357.035 291.425 334.928 328.513 299.343 347.791zM238.502 186.612C 241.877 194.779 237.992 204.135 229.825 207.509C 217.843 212.46 208.294 222.224 203.627 234.296C 201.174 240.642 195.118 244.531 188.7 244.531C 177.501 244.531 169.723 233.251 173.78 222.758C 181.591 202.553 197.564 186.216 217.605 177.935C 225.773 174.558 235.127 178.445 238.502 186.612zM70.00002 250.965C 70.00002 259.801 62.83601 266.965 54.00002 266.965L54.00002 266.965L16.00002 266.965C 7.164015 266.965 1.525879E-05 259.801 1.525879E-05 250.965C 1.525879E-05 242.129 7.164015 234.965 16.00002 234.965L16.00002 234.965L54.00002 234.965C 62.83601 234.965 70.00002 242.129 70.00002 250.965zM122.11 376.841C 128.359 383.089 128.359 393.22 122.11 399.468L122.11 399.468L95.24001 426.338C 92.11601 429.463 88.02101 431.025 83.92702 431.025C 69.80202 431.025 62.50402 413.82 72.61401 403.712L72.61401 403.712L99.48402 376.842C 105.731 370.592 115.862 370.592 122.11 376.841zM232.035 57L232.035 19C 232.035 10.164 239.199 3 248.035 3C 256.871 3 264.035 10.164 264.035 19L264.035 19L264.035 57C 264.035 65.836 256.871 73 248.035 73C 239.199 73 232.035 65.836 232.035 57zM72.66202 98.24001C 66.41302 91.992 66.41302 81.86101 72.66202 75.61301C 78.91002 69.36401 89.04102 69.36401 95.28902 75.61301L95.28902 75.61301L122.159 102.483C 132.271 112.594 124.968 129.796 110.846 129.796C 106.751 129.796 102.657 128.234 99.53302 125.109zM373.89 102.532L400.76 75.662C 407.008 69.413 417.139 69.413 423.387 75.662C 429.636 81.91 429.636 92.041 423.387 98.289L423.387 98.289L396.517 125.159C 393.393 128.284 389.298 129.846 385.204 129.846C 371.078 129.846 363.78 112.641 373.89 102.532zM496 251.035C 496 259.871 488.836 267.035 480 267.035L480 267.035L442 267.035C 433.164 267.035 426 259.871 426 251.035C 426 242.199 433.164 235.035 442 235.035L442 235.035L480 235.035C 488.836 235.035 496 242.198 496 251.035zM423.338 403.76C 429.587 410.008 429.587 420.139 423.338 426.387C 417.091 432.635 406.959 432.636 400.711 426.387L400.711 426.387L373.841 399.517C 367.592 393.269 367.592 383.138 373.841 376.89C 380.089 370.641 390.22 370.641 396.468 376.89z"/>
</g>
</svg>